<svg width="837" height="125" viewBox="0 0 837 125" fill="none" xmlns="http://www.w3.org/2000/svg">
<path d="M122 124H0V2H122V124ZM62.4658 25.0674C59.5887 25.0674 56.7403 25.5663 53.9219 26.5645C51.1623 27.5039 48.6376 29.0308 46.3477 31.1445C44.0577 33.2584 42.208 35.989 40.7988 39.3359L52.4248 45.6768C53.2468 44.3264 54.128 43.24 55.0674 42.418C56.0068 41.5373 56.9464 40.8915 57.8857 40.4805C58.8838 40.0695 59.8818 39.8643 60.8799 39.8643C62.0542 39.8643 63.1405 40.1288 64.1387 40.6572C65.1368 41.127 66.0179 41.8311 66.7812 42.7705C67.5446 43.6513 68.1319 44.7083 68.543 45.9414C69.0126 47.1156 69.247 48.4366 69.2471 49.9043C66.7225 49.4346 63.963 49.2586 60.9688 49.376C58.0329 49.4934 55.1261 50.0225 52.249 50.9619C49.3719 51.8427 46.7297 53.2226 44.3223 55.1016C41.9149 56.9218 39.9767 59.3287 38.5088 62.3232C37.0996 65.3178 36.3955 69.0172 36.3955 73.4209C36.3955 75.5347 36.5715 77.9426 36.9238 80.6436C37.3348 83.4032 37.8921 86.4861 38.5967 89.8916C39.36 93.3559 40.2703 97.2021 41.3271 101.43L55.7715 97.8184C55.0082 95.1175 54.3041 92.3282 53.6582 89.4512C53.0123 86.574 52.4833 83.8433 52.0723 81.2598C51.6613 78.6763 51.4561 76.5037 51.4561 74.7422C51.4561 72.3348 51.8674 70.3091 52.6895 68.665C53.5115 67.0797 54.7446 65.8757 56.3887 65.0537C58.0914 64.1731 60.1465 63.6449 62.5537 63.4688C65.0198 63.2339 67.8381 63.3214 71.0088 63.7324C74.2382 64.1434 77.8199 64.8193 81.7539 65.7588C82.1649 64.8781 82.6347 63.6447 83.1631 62.0596C83.6915 60.4742 84.1613 58.6537 84.5723 56.5986C84.9833 54.5435 85.1895 52.4002 85.1895 50.1689C85.1895 46.9396 84.6905 43.8275 83.6924 40.833C82.7529 37.8385 81.3136 35.167 79.376 32.8184C77.4383 30.4109 75.0606 28.5312 72.2422 27.1807C69.4238 25.7715 66.1649 25.0674 62.4658 25.0674Z" fill="white"/>
<path d="M154.796 123V3.15771H200.032L216.053 72.7385C216.681 75.3563 217.257 78.6023 217.78 82.4767C218.304 86.2463 218.566 90.0682 218.566 93.9426H221.079C221.079 90.0682 221.341 86.2463 221.864 82.4767C222.388 78.6023 222.964 75.3563 223.592 72.7385L239.456 3.15771H284.848V123H256.733V47.6077C256.733 43.6287 256.785 40.3826 256.89 37.8696C257.1 35.3565 257.466 31.8487 257.99 27.3461L255.476 27.0319C254.22 35.3041 252.911 42.1627 251.55 47.6077L233.487 123H206.157L188.095 47.6077C186.733 42.1627 185.425 35.3041 184.168 27.0319L181.655 27.3461C182.178 31.8487 182.493 35.3565 182.597 37.8696C182.807 40.3826 182.911 43.6287 182.911 47.6077V123H154.796ZM331.531 124.885C316.872 124.885 307.291 119.754 302.788 109.492C301.217 106.037 300.223 102.581 299.804 99.1258C299.49 95.5656 299.333 90.4347 299.333 83.7332V33.9429H325.72V84.0473C325.72 88.4452 325.982 91.9007 326.505 94.4138C327.133 96.9268 328.128 98.9164 329.49 100.382C331.584 102.581 334.83 103.681 339.228 103.681C344.673 103.681 348.599 102.162 351.008 99.1258C353.207 96.0891 354.306 91.063 354.306 84.0473V33.9429H380.693V123H354.306V122.058C354.306 120.382 354.463 118.969 354.777 117.817C355.196 116.665 355.929 115.461 356.976 114.204L354.777 112.634C351.845 117.241 348.547 120.435 344.882 122.215C341.217 123.995 336.767 124.885 331.531 124.885ZM397.189 42.1104C403.262 42.1104 407.974 40.8538 411.325 38.3408C414.676 35.723 416.299 31.9534 416.194 27.0319H414.309C413.786 28.2885 413.001 29.2309 411.953 29.8591C411.011 30.3827 409.702 30.6445 408.027 30.6445C404.885 30.6445 402.058 29.3356 399.545 26.7178C397.137 24.1 395.933 20.6969 395.933 16.5084C395.933 11.9011 397.399 8.23621 400.331 5.51372C403.262 2.68651 407.137 1.2729 411.953 1.2729C417.817 1.2729 422.268 3.36713 425.304 7.55559C428.341 11.6393 429.859 17.0843 429.859 23.8906C429.859 32.3722 427.241 39.6497 422.006 45.7229C416.77 51.7962 408.498 55.0946 397.189 55.6182V42.1104ZM468.528 124.885C460.047 124.885 453.031 122.581 447.481 117.974C442.036 113.262 439.314 106.613 439.314 98.0263C439.314 88.6023 443.031 81.4295 450.466 76.5081C453.293 74.728 456.382 73.3144 459.733 72.2673C463.188 71.2202 467.115 70.2778 471.513 69.4401L494.602 65.3563C494.287 60.8537 493.083 57.3983 490.989 54.9899C488.999 52.8957 486.015 51.8486 482.036 51.8486C478.895 51.8486 476.068 52.8957 473.555 54.9899C471.041 57.0841 469.471 59.9637 468.843 63.6286H442.612C443.659 56.5082 446.12 50.592 449.994 45.88C453.973 41.168 458.738 37.7125 464.288 35.5136C469.942 33.2099 475.911 32.0581 482.193 32.0581C487.638 32.0581 492.717 32.7911 497.429 34.257C502.245 35.723 506.382 37.9219 509.837 40.8538C513.293 43.7858 515.806 47.2412 517.376 51.2203C518.947 55.1993 519.889 59.3354 520.203 63.6286C520.622 67.9218 520.832 73.6285 520.832 80.7489V123H494.444V121.586C494.444 118.864 495.23 116.194 496.8 113.576L494.444 112.162C493.188 115.408 491.041 118.131 488.005 120.33C483.502 123.366 477.01 124.885 468.528 124.885ZM476.225 104.937C479.366 104.937 482.56 104.204 485.806 102.738C488.424 101.587 490.361 100.121 491.617 98.3404C492.978 96.6651 494.13 93.6808 495.073 89.3876C495.282 88.3405 495.596 87.5552 496.015 87.0316C496.434 86.508 497.115 86.1939 498.057 86.0892L497.586 83.5761L484.078 86.2463L478.895 87.1887C475.963 87.7122 473.659 88.2881 471.984 88.9164C470.413 89.5447 469.104 90.3824 468.057 91.4295C466.486 93.0002 465.701 94.885 465.701 97.0839C465.701 99.7017 466.696 101.691 468.685 103.052C470.675 104.309 473.188 104.937 476.225 104.937ZM574.012 124.885C567.206 124.885 560.609 123.838 554.222 121.743C547.939 119.545 542.547 116.037 538.044 111.22C533.542 106.299 530.819 99.9635 529.877 92.2148H555.479C556.84 96.4033 559.196 99.597 562.547 101.796C565.897 103.89 569.615 104.937 573.698 104.937C577.363 104.937 580.348 104.204 582.651 102.738C585.06 101.272 586.264 99.3352 586.264 96.9268C586.264 94.2043 584.798 92.2148 581.866 90.9583C578.934 89.7017 574.274 88.4452 567.887 87.1887C560.871 85.8274 555.06 84.3615 550.452 82.7908C545.845 81.1154 541.866 78.3929 538.515 74.6233C535.165 70.8537 533.489 65.7228 533.489 59.2307C533.489 50.0161 536.892 43.2099 543.699 38.812C550.505 34.3094 559.039 32.0581 569.3 32.0581C580.295 32.0581 589.405 34.8329 596.63 40.3826C603.96 45.8276 608.463 53.5239 610.138 63.4715H585.164C584.012 59.4925 581.971 56.5606 579.039 54.6758C576.107 52.791 572.808 51.8486 569.143 51.8486C565.897 51.8486 563.28 52.4768 561.29 53.7334C559.405 54.9899 558.463 56.6129 558.463 58.6024C558.463 61.3249 559.929 63.3145 562.861 64.571C565.897 65.7228 570.662 66.8746 577.154 68.0265C584.274 69.283 590.19 70.6966 594.902 72.2673C599.614 73.838 603.646 76.4557 606.997 80.1207C610.452 83.7856 612.18 88.8117 612.18 95.1991C612.18 101.063 610.609 106.246 607.468 110.749C604.431 115.251 600.033 118.759 594.274 121.272C588.515 123.681 581.761 124.885 574.012 124.885ZM663.209 124.885C656.403 124.885 649.806 123.838 643.419 121.743C637.136 119.545 631.744 116.037 627.241 111.22C622.738 106.299 620.016 99.9635 619.074 92.2148H644.676C646.037 96.4033 648.393 99.597 651.744 101.796C655.094 103.89 658.812 104.937 662.895 104.937C666.56 104.937 669.545 104.204 671.848 102.738C674.257 101.272 675.461 99.3352 675.461 96.9268C675.461 94.2043 673.995 92.2148 671.063 90.9583C668.131 89.7017 663.471 88.4452 657.084 87.1887C650.068 85.8274 644.257 84.3615 639.649 82.7908C635.042 81.1154 631.063 78.3929 627.712 74.6233C624.362 70.8537 622.686 65.7228 622.686 59.2307C622.686 50.0161 626.089 43.2099 632.896 38.812C639.702 34.3094 648.236 32.0581 658.497 32.0581C669.492 32.0581 678.602 34.8329 685.827 40.3826C693.157 45.8276 697.66 53.5239 699.335 63.4715H674.361C673.209 59.4925 671.168 56.5606 668.236 54.6758C665.304 52.791 662.005 51.8486 658.34 51.8486C655.094 51.8486 652.477 52.4768 650.487 53.7334C648.602 54.9899 647.66 56.6129 647.66 58.6024C647.66 61.3249 649.126 63.3145 652.058 64.571C655.094 65.7228 659.859 66.8746 666.351 68.0265C673.471 69.283 679.387 70.6966 684.099 72.2673C688.811 73.838 692.843 76.4557 696.194 80.1207C699.649 83.7856 701.377 88.8117 701.377 95.1991C701.377 101.063 699.806 106.246 696.665 110.749C693.628 115.251 689.23 118.759 683.471 121.272C677.712 123.681 670.958 124.885 663.209 124.885ZM738.742 123H712.354V33.9429H738.742V123ZM725.548 27.8173C721.36 27.8173 717.799 26.6131 714.867 24.2047C712.04 21.6916 710.627 18.3932 710.627 14.3095C710.627 10.2257 712.04 6.92732 714.867 4.41424C717.799 1.90117 721.36 0.644633 725.548 0.644633C729.736 0.644633 733.244 1.90117 736.071 4.41424C739.003 6.92732 740.469 10.2257 740.469 14.3095C740.469 18.3932 739.003 21.6916 736.071 24.2047C733.244 26.6131 729.736 27.8173 725.548 27.8173ZM792.98 124.885C786.174 124.885 779.577 123.838 773.19 121.743C766.907 119.545 761.514 116.037 757.012 111.22C752.509 106.299 749.787 99.9635 748.844 92.2148H774.446C775.807 96.4033 778.163 99.597 781.514 101.796C784.865 103.89 788.582 104.937 792.666 104.937C796.331 104.937 799.315 104.204 801.619 102.738C804.027 101.272 805.231 99.3352 805.231 96.9268C805.231 94.2043 803.765 92.2148 800.834 90.9583C797.902 89.7017 793.242 88.4452 786.855 87.1887C779.839 85.8274 774.027 84.3615 769.42 82.7908C764.813 81.1154 760.834 78.3929 757.483 74.6233C754.132 70.8537 752.457 65.7228 752.457 59.2307C752.457 50.0161 755.86 43.2099 762.666 38.812C769.472 34.3094 778.006 32.0581 788.268 32.0581C799.263 32.0581 808.373 34.8329 815.598 40.3826C822.928 45.8276 827.43 53.5239 829.106 63.4715H804.132C802.98 59.4925 800.938 56.5606 798.006 54.6758C795.074 52.791 791.776 51.8486 788.111 51.8486C784.865 51.8486 782.247 52.4768 780.258 53.7334C778.373 54.9899 777.43 56.6129 777.43 58.6024C777.43 61.3249 778.896 63.3145 781.828 64.571C784.865 65.7228 789.629 66.8746 796.121 68.0265C803.242 69.283 809.158 70.6966 813.87 72.2673C818.582 73.838 822.613 76.4557 825.964 80.1207C829.42 83.7856 831.147 88.8117 831.147 95.1991C831.147 101.063 829.577 106.246 826.435 110.749C823.399 115.251 819.001 118.759 813.242 121.272C807.483 123.681 800.729 124.885 792.98 124.885Z" fill="white"/>
</svg>
